<svg xmlns="http://www.w3.org/2000/svg" width="20" height="20" viewBox="0 0 20 20"><g><g><g><path fill="#e6514a" d="M19.551 15.819l-3.088-3.096c-.616-.615-1.634-.596-2.27.043l-1.557 1.559-.307-.171c-.983-.546-2.327-1.294-3.743-2.714-1.42-1.422-2.166-2.772-2.713-3.757-.057-.105-.112-.206-.167-.301l1.045-1.046.513-.515c.638-.639.655-1.66.041-2.276L4.217.45c-.614-.615-1.633-.596-2.27.043l-.871.877.024.024A5.038 5.038 0 0 0 .382 2.66a5.267 5.267 0 0 0-.319 1.286c-.408 3.39 1.137 6.486 5.33 10.689 5.796 5.809 10.467 5.37 10.669 5.348a5.187 5.187 0 0 0 2.547-1.04l.02.017.881-.865c.636-.64.655-1.66.041-2.277z"/></g></g></g></svg>