<svg xmlns="http://www.w3.org/2000/svg" width="24" height="24" viewBox="0 0 24 24"><g><g><path fill="#e6514a" d="M12 0c6.627 0 12 5.373 12 12s-5.373 12-12 12S0 18.627 0 12 5.373 0 12 0zm6.734 8.236c.643-.646.902-.82.48-1.35-.273-.338-1.4.273-2.381.987-.808.59-2.319 1.92-4.779 4.4a25.374 25.374 0 0 0-1.702 1.87.355.355 0 0 1-.515.036l-2.86-2.66a1.202 1.202 0 0 0-1.697.063 1.202 1.202 0 0 0 .063 1.697l4.775 4.437a.352.352 0 0 0 .52-.044l.596-.741c.01-.014 1.366-1.871 2.8-3.6 2.485-2.998 3.377-3.77 4.7-5.095z"/></g></g></svg>