<svg xmlns="http://www.w3.org/2000/svg" width="24" height="24" viewBox="0 0 24 24"><g><g><g><path fill="#4caf50" d="M12.003 0h-.006C5.38 0 0 5.382 0 12c0 2.625.846 5.058 2.284 7.033L.79 23.491 5.4 22.017A11.895 11.895 0 0 0 12.003 24C18.619 24 24 18.616 24 12c0-6.617-5.38-12-11.997-12z"/></g><g><path fill="#fafafa" d="M18.985 16.945c-.29.818-1.438 1.496-2.354 1.694-.627.133-1.447.24-4.204-.903-3.526-1.461-5.797-5.045-5.974-5.277-.17-.233-1.425-1.898-1.425-3.62 0-1.722.874-2.56 1.227-2.92.29-.296.768-.43 1.227-.43.148 0 .282.007.402.013.353.015.53.036.762.592.29.698.995 2.42 1.078 2.597.086.177.172.417.052.65-.113.24-.212.346-.389.55-.177.204-.345.36-.522.579-.162.19-.345.394-.14.747.203.345.908 1.495 1.946 2.42 1.34 1.192 2.426 1.573 2.814 1.734.29.12.634.092.846-.133.269-.29.6-.77.937-1.242.24-.339.543-.38.862-.26.323.112 2.038.96 2.39 1.135.353.177.585.26.67.41.085.148.085.845-.205 1.664z"/></g></g></g></svg>